<?xml version="1.0" standalone="no"?>
<!DOCTYPE svg PUBLIC "-//W3C//DTD SVG 20010904//EN"
 "http://www.w3.org/TR/2001/REC-SVG-20010904/DTD/svg10.dtd">
<svg version="1.0" xmlns="http://www.w3.org/2000/svg"
 width="640.000000pt" height="640.000000pt" viewBox="0 0 640.000000 640.000000"
 preserveAspectRatio="xMidYMid meet">
<metadata>
Created by potrace 1.14, written by Peter Selinger 2001-2017
</metadata>
<g transform="translate(0.000000,640.000000) scale(0.100000,-0.100000)"
fill="#000000" stroke="none">
<path d="M3161 6155 c-110 -35 -171 -165 -125 -273 46 -111 169 -157 280 -105
l32 14 328 -194 329 -194 0 -133 0 -134 -50 -29 c-27 -16 -113 -63 -190 -104
-267 -144 -405 -224 -415 -243 -7 -12 -10 -669 -10 -1955 l0 -1937 30 -30 c26
-25 36 -29 63 -24 18 4 41 16 52 27 20 19 20 34 23 1687 l2 1667 523 295 c287
162 534 307 550 322 l27 26 0 396 0 395 30 18 c54 32 84 87 88 162 3 77 -18
124 -81 175 -34 27 -47 31 -110 34 -60 2 -78 -1 -112 -20 -124 -73 -139 -240
-29 -337 l44 -39 0 -353 c0 -327 -1 -355 -17 -365 -10 -6 -106 -59 -213 -119
-107 -59 -306 -170 -442 -246 -137 -77 -250 -139 -253 -139 -3 0 -5 60 -5 134
l0 134 98 52 c250 134 529 295 550 317 21 23 22 30 22 232 0 150 -3 212 -13
224 -6 10 -174 113 -372 230 l-360 213 -6 45 c-13 89 -72 157 -155 178 -52 13
-58 13 -113 -4z"/>
<path d="M1665 6081 c-124 -58 -159 -221 -68 -322 19 -21 43 -41 54 -44 18 -6
19 -18 19 -220 0 -188 2 -215 18 -233 9 -11 287 -174 617 -363 330 -188 606
-347 613 -353 9 -9 12 -47 10 -144 l-3 -132 -693 390 c-484 272 -702 390 -723
390 -67 0 -102 -83 -56 -134 12 -13 344 -205 737 -426 393 -221 721 -407 728
-412 9 -8 12 -343 12 -1612 l0 -1603 23 -20 c33 -31 62 -36 96 -19 16 9 32 20
35 25 3 5 6 964 6 2132 1 2023 0 2124 -17 2140 -10 10 -144 90 -298 179 -154
89 -311 180 -349 202 l-68 40 126 69 126 69 298 -176 c348 -206 348 -206 344
-230 -14 -72 76 -191 160 -212 86 -22 179 16 223 92 52 89 24 224 -57 274 -60
37 -112 45 -174 27 -43 -12 -59 -13 -77 -4 -12 7 -173 101 -357 210 -185 110
-346 199 -358 199 -27 0 -440 -224 -464 -252 -25 -28 -24 -98 2 -131 21 -26
186 -126 553 -333 l227 -128 0 -138 c0 -76 -2 -138 -3 -138 -2 0 -246 139
-543 308 l-539 308 -3 173 -2 173 45 40 c60 53 83 124 65 200 -30 125 -169
193 -285 139z"/>
<path d="M1117 5830 c-81 -24 -137 -104 -137 -195 0 -74 18 -114 74 -161 l47
-39 -3 -104 -3 -104 -90 -50 c-282 -157 -442 -251 -457 -269 -17 -19 -18 -55
-18 -442 0 -396 1 -423 18 -442 10 -10 431 -257 935 -548 504 -292 917 -532
917 -535 -1 -4 -39 -29 -85 -58 l-84 -52 -368 213 c-833 481 -1333 772 -1415
824 l-88 55 0 538 0 538 48 48 c110 110 85 266 -55 337 -18 9 -55 16 -83 16
-135 0 -232 -124 -199 -254 12 -48 67 -121 99 -131 20 -6 20 -18 20 -586 0
-327 4 -588 9 -597 5 -9 286 -179 624 -377 338 -198 613 -363 611 -366 -2 -4
-37 -28 -78 -53 l-73 -46 -333 185 c-331 184 -366 199 -410 175 -28 -15 -42
-66 -27 -101 10 -26 67 -61 380 -235 220 -122 378 -204 394 -204 16 0 82 35
166 88 77 48 144 88 148 90 5 2 143 -73 308 -167 165 -94 311 -171 325 -171
13 0 82 36 152 80 l129 80 9 -78 c4 -42 5 -370 1 -729 l-7 -652 -247 -142
c-135 -78 -260 -150 -278 -161 l-32 -19 -16 31 c-17 34 -57 54 -86 45 -33 -11
-253 -136 -276 -158 -13 -11 -23 -31 -23 -45 0 -24 130 -270 157 -298 34 -34
59 -28 186 42 175 96 177 98 177 143 0 20 -7 46 -15 57 -8 10 -15 24 -15 30 0
9 339 214 354 214 4 0 6 -66 6 -147 l0 -148 -133 -78 c-74 -42 -143 -86 -155
-97 -66 -61 -16 -153 72 -134 33 6 326 174 364 207 22 20 22 24 22 261 l0 241
44 23 c24 13 49 35 55 48 8 18 11 318 11 1079 l0 1054 -22 25 c-13 13 -371
227 -797 475 -579 338 -782 451 -806 451 -64 0 -103 -93 -57 -137 10 -10 354
-214 765 -453 l747 -435 0 -124 c0 -107 -2 -122 -15 -117 -9 3 -418 238 -910
523 l-895 517 0 137 0 137 205 112 c123 67 212 110 221 106 9 -3 285 -160 615
-347 550 -313 598 -343 593 -364 -8 -32 14 -104 43 -143 35 -46 91 -72 158
-72 71 0 111 17 156 67 141 156 -22 399 -220 330 l-44 -16 -616 352 c-721 411
-680 389 -706 383 -11 -3 -103 -50 -205 -105 -102 -56 -188 -101 -192 -101 -5
0 -8 47 -8 104 l0 104 258 145 c141 79 269 156 285 170 l27 26 0 148 0 149 30
17 c37 22 77 89 85 142 24 145 -123 268 -268 225z"/>
<path d="M4921 5565 c-114 -36 -172 -170 -122 -280 16 -37 81 -105 99 -105 5
0 6 -84 4 -187 -4 -178 -3 -189 17 -214 11 -14 129 -88 261 -163 133 -76 240
-139 238 -141 -3 -3 -874 -505 -974 -562 -39 -22 -43 -22 -77 -8 -53 22 -106
18 -164 -10 -66 -33 -102 -85 -110 -157 -10 -95 32 -173 112 -209 129 -59 275
27 294 172 l6 52 150 87 c83 48 327 189 543 313 l393 226 72 -43 72 -43 3 -84
2 -84 -392 -227 c-216 -124 -623 -359 -905 -522 -282 -163 -516 -296 -520
-296 -4 0 -7 195 -6 432 l2 433 443 252 c244 139 453 262 466 274 32 30 29 74
-7 110 -16 16 -40 29 -52 29 -24 0 -971 -532 -1001 -562 -17 -17 -18 -93 -18
-1394 0 -852 4 -1382 10 -1393 5 -10 52 -42 105 -72 l96 -54 -7 -227 c-6 -198
-5 -230 9 -251 23 -36 263 -168 314 -174 51 -7 87 13 97 52 12 48 -15 77 -138
145 l-116 65 0 143 c0 93 4 142 11 142 5 0 66 -32 134 -71 l123 -72 -20 -42
c-33 -67 -18 -84 147 -177 77 -43 147 -78 157 -78 30 0 64 43 133 165 80 144
85 163 53 198 -27 30 -250 156 -290 164 -21 4 -33 -1 -55 -24 -15 -16 -32 -36
-38 -46 -9 -15 -43 3 -283 146 l-273 162 -2 723 c-1 397 0 722 4 722 3 0 52
-32 110 -71 57 -39 118 -73 135 -76 27 -4 86 27 424 227 216 128 400 234 409
236 9 3 79 -36 156 -86 102 -66 149 -90 172 -90 24 0 102 41 290 152 142 83
268 160 281 171 25 23 30 81 8 109 -17 22 -61 39 -83 31 -10 -3 -125 -69 -256
-146 l-237 -139 -75 48 c-41 27 -75 52 -75 55 0 4 228 139 507 300 279 161
515 301 525 311 17 17 18 52 18 522 0 489 1 505 19 511 32 10 89 81 102 127
34 127 -70 258 -207 258 -49 0 -132 -47 -162 -92 -36 -56 -43 -148 -13 -205
19 -38 73 -93 90 -93 5 0 11 -205 15 -456 6 -374 5 -459 -6 -470 -7 -7 -161
-98 -343 -202 -271 -155 -1265 -732 -1489 -864 l-59 -35 -73 51 c-40 28 -73
53 -73 56 0 3 226 135 502 294 276 160 689 397 917 529 228 132 425 250 438
264 22 24 22 25 22 379 0 211 -4 363 -10 373 -14 26 -531 331 -561 331 -58 0
-98 -58 -76 -112 10 -25 53 -55 242 -168 l230 -137 3 -101 c1 -56 1 -102 -1
-102 -3 0 -44 24 -93 53 -49 29 -199 118 -333 197 l-243 144 4 148 3 148 39
32 c174 143 21 422 -193 353z"/>
<path d="M3167 4068 c-9 -7 -21 -26 -27 -41 -7 -19 -10 -563 -10 -1703 l0
-1674 -40 0 c-30 0 -47 -7 -65 -25 -25 -24 -25 -27 -25 -188 0 -225 -13 -212
208 -212 227 0 212 -15 212 209 0 94 -4 176 -8 182 -12 19 -49 34 -81 34 l-31
0 0 1693 0 1694 -23 21 c-26 25 -83 30 -110 10z"/>
<path d="M2752 3198 l-21 -23 -7 -1252 -7 -1252 31 -30 c39 -39 74 -40 112 -3
l28 28 4 1245 c5 1305 5 1286 -37 1303 -35 13 -82 6 -103 -16z"/>
<path d="M3569 3024 l-24 -26 -3 -1169 -2 -1170 26 -24 c42 -39 110 -28 132
20 7 16 11 391 12 1172 1 631 1 1156 1 1165 -1 29 -42 58 -81 58 -26 0 -43 -7
-61 -26z"/>
</g>
</svg>
